{"title":"Chocolate Krishna (Comedy Show) AYN Rip x264 AAC 500MB - Shammu","uid":10574113,"size":525080563,"categoryP":"video","categoryS":"hd___tv_shows","magnet":"?xt=urn:btih:63fbda59ae7edc7ffd91453ed24d51080c20f669&amp;dn=Chocolate+Krishna+%28Comedy+Show%29+AYN+Rip+x264+AAC+500MB+-+Shammu&amp;tr=udp%3A%2F%2Ftracker.openbittorrent.com%3A80&amp;tr=udp%3A%2F%2Fopen.demonii.com%3A1337&amp;tr=udp%3A%2F%2Ftracker.coppersurfer.tk%3A6969&amp;tr=udp%3A%2F%2Fexodus.desync.com%3A6969","seeders":1,"leechers":0,"uploader":"TeamXDN","files":1,"time":1405622337,"description":"Chocolate Krishna (Comedy Show) AYN Rip x264 AAC 500MB - Shammu\n\nFormat                                   : MPEG-4\nFormat profile                           : Base Media\nCodec ID                                 : isom\nFile size                                : 501 MiB\nDuration                                 : 1h 32mn\nOverall bit rate mode                    : Variable\nOverall bit rate                         : 760 Kbps\nEncoded date                             : UTC 2014-07-17 15:43:12\nTagged date                              : UTC 2014-07-17 15:43:12\n\nVideo\nID                                       : 1\nFormat                                   : AVC\nFormat/Info                              : Advanced Video Codec\nFormat profile                           : &lt;a class=&quot;__cf_email__&quot; href=&quot;/cdn-cgi/l/email-protection&quot; data-cfemail=&quot;420a2b252a020e716c72&quot;&gt;[email&amp;#160;protected]&lt;/a&gt;&lt;script cf-hash='f9e31' type=&quot;text/javascript&quot;&gt;\n/* &lt;![CDATA[ */!function(){try{var t=&quot;currentScript&quot;in document?document.currentScript:function(){for(var t=document.getElementsByTagName(&quot;script&quot;),e=t.length;e--;)if(t[e].getAttribute(&quot;cf-hash&quot;))return t[e]}();if(t&amp;&amp;t.previousSibling){var e,r,n,i,c=t.previousSibling,a=c.getAttribute(&quot;data-cfemail&quot;);if(a){for(e=&quot;&quot;,r=parseInt(a.substr(0,2),16),n=2;a.length-n;n+=2)i=parseInt(a.substr(n,2),16)^r,e+=String.fromCharCode(i);e=document.createTextNode(e),c.parentNode.replaceChild(e,c)}}}catch(u){}}();/* ]]&gt; */&lt;/script&gt;\nFormat settings, CABAC                   : Yes\nFormat settings, ReFrames                : 4 frames\nCodec ID                                 : avc1\nCodec ID/Info                            : Advanced Video Coding\nDuration                                 : 1h 32mn\nBit rate                                 : 669 Kbps\nMaximum bit rate                         : 2 085 Kbps\nWidth                                    : 720 pixels\nHeight                                   : 400 pixels\nDisplay aspect ratio                     : 16:9\nFrame rate mode                          : Constant\nFrame rate                               : 23.220 fps\nColor space                              : YUV\nChroma subsampling                       : 4:2:0\nBit depth                                : 8 bits\nScan type                                : Progressive\nBits/(Pixel*Frame)                       : 0.100\nStream size                              : 440 MiB (88%)\nWriting library                          : x264 core 142 r2431 ac76440\nEncoded date                             : UTC 2014-07-17 05:27:47\nTagged date                              : UTC 2014-07-17 15:43:34\n\nAudio\nID                                       : 2\nFormat                                   : AAC\nFormat/Info                              : Advanced Audio Codec\nFormat profile                           : LC\nCodec ID                                 : 40\nDuration                                 : 1h 32mn\nBit rate mode                            : Variable\nBit rate                                 : 88.0 Kbps\nMaximum bit rate                         : 115 Kbps\nChannel(s)                               : 2 channels\nChannel positions                        : Front: L R\nSampling rate                            : 48.0 KHz\nCompression mode                         : Lossy\nStream size                              : 57.9 MiB (12%)\nEncoded date                             : UTC 2014-07-17 05:33:46\nTagged date                              : UTC 2014-07-17 15:43:34","torrent":{"xt":"urn:btih:63fbda59ae7edc7ffd91453ed24d51080c20f669","amp;dn":"Chocolate+Krishna+%28Comedy+Show%29+AYN+Rip+x264+AAC+500MB+-+Shammu","amp;tr":["udp%3A%2F%2Ftracker.openbittorrent.com%3A80","udp%3A%2F%2Fopen.demonii.com%3A1337","udp%3A%2F%2Ftracker.coppersurfer.tk%3A6969","udp%3A%2F%2Fexodus.desync.com%3A6969"],"infoHash":"63fbda59ae7edc7ffd91453ed24d51080c20f669","infoHashBuffer":{"type":"Buffer","data":[99,251,218,89,174,126,220,127,253,145,69,62,210,77,81,8,12,32,246,105]},"announce":[],"urlList":[]}}